<svg id="Layer_1" data-name="Layer 1" xmlns="http://www.w3.org/2000/svg" viewBox="0 0 3000 2000"><defs><style>.cls-1{fill:#223168;}.cls-2{fill:#c79d4a;}.cls-3{fill:#fff;}</style></defs><rect class="cls-1" width="3000" height="2000"/><path class="cls-2" d="M687,763.58c1.68-1,3.66-3,5.67-1.58,6.67,4.06,12.8,9,19.46,13.08,10.27,6.37,19.94,13.68,30.25,20,9.92,6.11,19.1,13.35,29,19.47,3.91,2.33,7.36,5.66,11.94,6.66,0-7.45.13-14.89.14-22.34,10.62.4,21.24-.86,31.83.05,0,15,0,30.08,0,45.12,12.35,9.2,25.79,16.8,38.27,25.81,9.74,7,20.09,13,29.81,20,3.26,2.4,6.58,4.72,10,6.91-13.73,0-27.47.4-41.21.15-2.29,0-4.18-1.4-6-2.54-4.73-3.14-9.41-6.4-14.24-9.4-10.77-6.53-20.89-14.06-31.32-21.11-1.51-1.16-3.43-1.29-5.23-1.58-19.77,33.48-39.93,66.7-59.78,100.12a29.43,29.43,0,0,1-4.76,6.56c-7.91-9.85-14.1-20.92-21.48-31.14-5.89-8.25-11-17-16.72-25.35l-2.35-.14c-6.31,9.69-12.34,19.57-18.72,29.24-6.61,9.4-12.24,19.47-19.16,28.68-22.7-35.91-43.64-72.88-65.62-109.21C574.9,867.48,564.31,876,553,883.32c-5.23,3.35-10.43,6.75-15.54,10.27-2.35,1.5-4.72,3.5-7.7,3.26-13.68,0-27.37.34-41-.06,23-15.88,46.53-31,69.6-46.87,27.58-18.16,54.69-37,82.37-55C655.9,784.07,671.83,774.42,687,763.58Zm-13.18,38.2c-10.89,6.77-21.08,14.61-32,21.35-10.3,6.49-19.87,14.06-30.26,20.41a20.63,20.63,0,0,0,3.56,8.14c7.55,11.48,14,23.63,21.71,35,5.8,9.71,11.33,19.56,17.63,29,9.09-13.36,17.95-26.9,26.83-40.4,6.76-.15,13.52,0,20.28-.06,9.73,13.07,17.61,27.42,27.65,40.27,2.86-5.2,6.44-10,9.23-15.19,5.7-10.36,12.5-20.06,18.17-30.42,4.58-8.19,10.09-15.83,14.41-24.17.9-1.21-.86-2.11-1.56-2.8-15-10-29.68-20.51-45-30.12-9.52-6.82-19.48-13-29-19.74-1.92-1.16-4.32-3.15-6.53-1.39C683.71,794.72,679,798.59,673.79,801.78Z"/><path class="cls-2" d="M693.9,812.2c4.62.66,9.3,2.41,12.08,6.39,2.89,3.24,2.83,7.76,2.89,11.84-5,.06-10,.09-15.08,0C693.82,824.38,693.87,818.29,693.9,812.2Z"/><path class="cls-2" d="M676.34,818.89c2.74-3.91,7.3-5.92,11.84-6.88.1,6.17.11,12.33.11,18.5q-7.59-.07-15.14-.11C673.29,826.39,673.74,822.13,676.34,818.89Z"/><path class="cls-2" d="M673.47,835.12c5,0,9.93-.09,14.9-.11q.14,7.89-.14,15.82c-4.94,0-9.88,0-14.82,0C673.37,845.61,673.43,840.37,673.47,835.12Z"/><path class="cls-2" d="M693.68,834.93c5,0,10,.15,15,.14.06,5.27.14,10.54,0,15.81-4.93-.07-9.85-.07-14.78-.07C693.77,845.52,693.66,840.23,693.68,834.93Z"/><path class="cls-2" d="M646,1008.22c10.56,0,21.14-.17,31.7,0q.21,114.9,0,229.79c-15.54-6.47-30.12-15.12-44.37-24.06a321.64,321.64,0,0,1-75-67.16c-2.23-2.1-.68-5.15.3-7.45,4-8.56,8.28-17,12.14-25.66,5.29,4.73,8.81,11,14,15.8,1.23-13,.78-26.06.89-39.1-.47-10.71-1-21.49.32-32.16,9.69,0,19.38,0,29.06,0,2.25-.49,2.72,2,2.51,3.65.07,33.56-.08,67.11,0,100.67,9,7.25,17.73,15,27.53,21.25-.2-12.23,1.13-24.45.14-36.64-.07-23.52,0-47-.06-70.55C646.1,1053.87,644.3,1031,646,1008.22Z"/><path class="cls-3" d="M529.44,907.25a414.62,414.62,0,0,0,57.17-22.07c5,8.86,10.72,17.33,15.55,26.31-26.88,12.47-55,22.11-83.55,30,.76,9.06,1.17,18.17,2.36,27.21.73,7.06,1,14.22,2.9,21.12,25.47-12.07,51.38-23.28,76.76-35.57.29,11.3-.06,22.61.33,33.91-23.58,11-47.31,21.59-71.09,32.12a303,303,0,0,0,27.78,71.52c1.5,2.92,3.74,5.57,4.52,8.82-.8,4.4-3.56,8.12-5.33,12.17-3.49,6.39-5.89,13.33-9.64,19.59a319.79,319.79,0,0,1-32.8-60.83c-19.53-48.5-27.19-101.16-26.94-153.24C501.47,914.75,515.84,912.35,529.44,907.25Z"/><path class="cls-3" d="M780.67,911.74c4.8-9,10.07-17.74,15.66-26.25,31.15,14.63,64.09,25.32,97.64,32.86.29,24.72-3.28,50-14.09,72.48-7.64,17.2-20.34,31.72-35.12,43.19a118.09,118.09,0,0,1-67.39,24c-10.2.23-20.39-.22-30.57.08a10.67,10.67,0,0,0-9.88,10.65c.09,39.26-.09,78.51.05,117.75a311,311,0,0,0,51.18-42c23.09-23.44,42-51.39,53.2-82.4,1.93-4.26,1.71-10.11,6.17-12.67,16-10.74,28.75-25.59,39.19-41.64-.87,10.7-3.82,21.07-6.19,31.51-10.81,42.73-31.6,83.06-61.1,115.91-31,35.56-70.62,62.83-112.94,83.29q-.06-69-.05-137.91c.68-13.58-1-27.27.88-40.77,1.71-13.18,11.28-24.62,23.54-29.45,7.79-3.63,16.54-2.56,24.86-2.72s16.74.26,25.09-.38c17.61-2.06,35.05-8.53,48.72-20,13.22-10.42,22.46-25.28,28-41,2.81-8,4.2-16.43,5.81-24.74-11.25-2.92-22.09-7.17-33.25-10.42C813.24,925.56,796.91,918.73,780.67,911.74Z"/><path class="cls-2" d="M1113.28,1095.45c11-2.55,24.58,2.31,28.34,13.7,4.29,10.08-.38,22.77-10.33,27.46-8.82,4.9-20.51,3.6-28.23-2.81-7.88-7.09-9.3-20.06-3.44-28.84A22.42,22.42,0,0,1,1113.28,1095.45Zm3,7.63c-11.85,2.18-15,20.6-4.33,26.35,8,5.38,20.62.11,21.45-9.81C1136,1109.73,1126,1100.4,1116.29,1103.08Z"/><path class="cls-2" d="M1243.94,1097.26c9.52-4.46,21.06-2.31,28.81,4.68-1.87,1.78-3.72,3.6-5.56,5.41-6-4.36-14.78-6.76-21.19-1.92-8.56,6.11-6.52,21.33,3.4,24.88,4.65,2.27,9.74.65,14.42-.66q-.09-6.53-.2-13c2.77,0,5.57-.06,8.38-.08-.13,5.86.4,11.74-.19,17.56-10.2,7.46-26.35,7.46-35.21-2.12C1226.88,1121.83,1230.62,1102.39,1243.94,1097.26Z"/><path class="cls-2" d="M1331.8,1101.9c9.51-10.07,26.7-8.88,36.46.29-2,1.74-4,3.5-6,5.25-5.62-4.12-13.38-6.68-19.85-2.88-9.37,4.72-9.41,20.44.11,25,4.83,3,10.66,1.76,15.8.4q.11-6.72.1-13.4,4.44,0,8.91,0c0,5.78,0,11.55,0,17.34-9.33,6.14-22.29,8.13-31.91,1.51C1324.23,1128.5,1322.65,1111.15,1331.8,1101.9Z"/><path class="cls-2" d="M1421,1098.51c8.39-5.68,19.5-4,28.23.07-1.17,2.3-2.28,4.64-3.43,7-5.3-2.09-11.25-4.21-16.91-2.36-3.2,1-4.83,5.56-1.44,7.38,6.44,3.51,14.81,2.77,20.46,7.91,5.77,5.36,2.52,15.44-4.13,18.48-9.19,4.53-19.9,2.09-28.67-2.24,1.19-2.31,2.42-4.62,3.66-6.89,6.18,2.76,13.46,5.82,20.13,2.84,2.51-.93,4.05-4.41,1.77-6.39-6.46-4.31-15.26-3.5-21.34-8.6C1413.94,1111.33,1415.34,1102.06,1421,1098.51Z"/><path class="cls-2" d="M1593.28,1098.22c8.24-5.4,19.21-3.85,27.57.48q-1.44,3.51-2.82,7.06c-5.54-2.49-12-4.59-18-2.41-2.73,1.06-3.31,5-1.38,7.07,6,3.63,13.68,3.27,19.6,7.19,4.31,2.9,5.24,9,3.26,13.61-3.41,6.29-11.14,8.7-17.9,8.3-6,0-11.66-2.42-17-5,1-2.27,2.13-4.52,3.21-6.76,6.3,2.78,13.5,5.8,20.4,3.22,3-.9,4.9-5.12,1.87-7.18-6.68-3.93-15.47-3.21-21.45-8.52C1585.5,1110.46,1587.69,1101.73,1593.28,1098.22Z"/><path class="cls-2" d="M1827,1099.61c9.71-7.22,24.24-6,32.73,2.64-1.88,1.71-3.75,3.44-5.62,5.16-5.5-4.61-13.92-6.89-20.15-2.32-8.89,6.18-7,22,3.27,25.67,6,2.53,12.19-.71,17.09-4.11a70.36,70.36,0,0,1,5.43,5.49c-7.94,8.62-22.19,9.64-31.7,3.08C1816.27,1127.65,1815.33,1107.73,1827,1099.61Z"/><path class="cls-2" d="M2129.9,1098.09c8.41-5,19.24-3.83,27.59.8-1,2.14-2,4.3-2.94,6.47-7-2.7-16.54-5.54-21.9,1.6,4.58,7.56,14.57,5.87,21.48,9.87,7.34,3.57,6.29,15.34-.33,19.2-9.42,5.78-21.69,3.86-30.77-1.68a65.39,65.39,0,0,1,4.31-6.16c7.57,3.07,17.8,6.82,24-.9-5.73-7.92-17.2-5.55-24-11.81C2122.29,1110.55,2123.91,1101.45,2129.9,1098.09Z"/><path class="cls-2" d="M2396.72,1098.09c8.41-5,19.24-3.83,27.58.8-1,2.14-2,4.3-2.93,6.47-7-2.7-16.54-5.54-21.91,1.6,4.59,7.56,14.58,5.87,21.49,9.87,7.34,3.57,6.29,15.34-.33,19.2-9.42,5.78-21.69,3.86-30.78-1.68a67.4,67.4,0,0,1,4.32-6.16c7.56,3.07,17.79,6.82,24-.9-5.73-7.92-17.2-5.55-24-11.81C2389.11,1110.55,2390.72,1101.45,2396.72,1098.09Z"/><path class="cls-2" d="M1039.32,1138.72c.13-14.39.24-28.8.08-43.19l7.77,0q7.95,13.92,16.46,27.54c5.25-9.4,11.15-18.42,17-27.46q3.56.09,7.16.24c.22,14.24.15,28.49-.1,42.75-2.87,0-5.74,0-8.6,0,0-8.73,0-17.45,0-26.16a222.68,222.68,0,0,0-13.26,22l-5-.19a165.86,165.86,0,0,0-12.76-21.11c-.3,8.59.06,17.15.61,25.72Q1044,1138.74,1039.32,1138.72Z"/><path class="cls-2" d="M1151.52,1095.71c8.41.25,17-1.06,25.26.64,7.53,1.51,13.42,9.34,11.63,17.06-.52,5.24-4.9,8.52-8.7,11.53,3.11,4.58,6.3,9.12,9.47,13.67q-5.29,0-10.56,0c-2.72-4.07-5.46-8.12-8.07-12.23-3.29-.06-6.57-.12-9.85-.15-.11,4.17-.19,8.36-.27,12.55-3.06-.06-6.12-.1-9.15-.11C1151.25,1124.34,1151.56,1110,1151.52,1095.71Zm9,7.29c0,5.37-.08,10.72,0,16.1,5.18-.34,11,.8,15.62-2,4.56-3,3.79-10.74-1.18-12.89C1170.35,1102.47,1165.29,1103.21,1160.51,1103Z"/><path class="cls-2" d="M1191.56,1103.05c.08-2.48.17-4.93.28-7.38,12.45,0,24.89-.25,37.33-.09,0,2.46-.07,4.93-.09,7.42-5,0-9.93,0-14.88.1,0,11.84,1.1,23.66.63,35.52h-9.33c0-11.82,0-23.62.28-35.42Z"/><path class="cls-2" d="M1276.42,1138.7c6.12-14.5,12.84-28.75,19.33-43.07,3,0,5.93-.07,8.92-.07,6.74,14.21,12.78,28.74,19.39,43-3.18,0-6.39.11-9.56.19q-2.07-4.79-4.06-9.53c-6.86.13-13.71.13-20.57.16q-1.93,4.51-3.83,9.09Zm16.59-16.84c4.8.14,9.58.22,14.4.27-2.23-5.57-4.5-11.09-7-16.55C1297.76,1110.9,1295.28,1116.34,1293,1121.86Z"/><path class="cls-2" d="M1377.07,1095.66c10.82-.08,21.67-.25,32.49-.16,0,2.5-.06,5-.07,7.52-7.77,0-15.52,0-23.27.06,0,3.34.09,6.7.17,10.06,6.71-.06,13.45-.06,20.16-.08,0,2.32,0,4.68,0,7q-10.11,0-20.22.16c0,3.61,0,7.23,0,10.86,7.93,0,15.87.06,23.79.22,0,2.4,0,4.8,0,7.24-11,.11-22.06,0-33.09,0C1376.78,1124.25,1377.08,1110,1377.07,1095.66Z"/><path class="cls-2" d="M1520.05,1095.6c3,0,6.12,0,9.19,0,.14,14.31-.11,28.64.07,43l-9.18.08C1520,1124.28,1520,1109.94,1520.05,1095.6Z"/><path class="cls-2" d="M1540.18,1138.56c-.12-14.31.11-28.62,0-42.92,2.5,0,5-.08,7.55-.09,7.23,9.08,14.91,17.79,22.25,26.78,0-8.88.17-17.76.31-26.64l8.88.09c.49,14.41-.28,28.83.21,43.25-3.22-.75-7.63.52-9.71-2.68-6.64-8.37-13.53-16.51-20.17-24.87-.16,9,0,18.07-.11,27.13C1546.3,1138.57,1543.24,1138.57,1540.18,1138.56Z"/><path class="cls-2" d="M1629.76,1095.61c3,0,5.94.08,8.92.14.17,9.15-.49,18.36.42,27.49.63,6.78,9,10.19,14.69,7.13,3.5-1.6,5.16-5.49,5.14-9.17.33-8.53.15-17.08.07-25.62,3,0,6.1.05,9.19.11,0,9,.6,18.11-.17,27.15-.42,6.19-4.08,12.41-10,14.81-7.31,2.93-16.39,2.46-22.7-2.53-4.22-3.28-5.78-8.83-5.78-13.95C1629.47,1112.65,1629.75,1104.13,1629.76,1095.61Z"/><path class="cls-2" d="M1678.6,1095.64c9.52.3,19.63-1.83,28.7,2,7.5,2.92,10.79,12.8,7,19.77-1.65,3.3-4.84,5.35-7.61,7.61q4.86,6.87,9.85,13.7c-3.45,0-6.87,0-10.29,0l-8.46-12.43c-3.31,0-6.64,0-9.93,0q0,6.12,0,12.26c-3.06,0-6.13.11-9.18.17C1678.53,1124.34,1678.33,1110,1678.6,1095.64Zm9.21,7.6c.06,5.27,0,10.56,0,15.85,6.81.09,14.63.81,19.21-5.37-1-3.33-.85-8.14-4.79-9.51C1697.57,1102.72,1692.59,1103.41,1687.81,1103.24Z"/><path class="cls-2" d="M1718,1138.7c7.08-14.2,12.79-29,20-43.21q4.43,0,8.89.09c6.14,14.56,13,28.84,19.57,43.21-3-.12-6.06-.09-9-.45-2.55-2.32-3.28-6-4.8-9-6.9-.13-13.79-.11-20.68-.06-1.33,3.12-2.65,6.26-4,9.39Zm17-16.65c4.76,0,9.53,0,14.3-.12-2.45-5.51-4.74-11.1-7.41-16.51C1739.65,1111,1737.3,1116.5,1735.05,1122.05Z"/><path class="cls-2" d="M1771.38,1095.6c2.65,0,5.34,0,8,.09,7.11,8.87,14.31,17.67,21.72,26.31.76-8.8.72-17.62.61-26.42l8.82.09c.5,14.3,0,28.63.11,42.94-2.55,0-5.09,0-7.6,0q-11.32-13.65-22.47-27.42c-.23,9.17.16,18.35.16,27.53-3.19,0-6.36,0-9.53,0C1771.49,1124.36,1771.22,1110,1771.38,1095.6Z"/><path class="cls-2" d="M1866.88,1095.63c10.78.09,21.56,0,32.34-.11,0,2.51,0,5,.06,7.56q-11.65,0-23.28-.06,0,4.92.09,9.85,10.1.17,20.24.08-.07,3.58-.09,7.22c-6.75,0-13.48.08-20.21,0,0,3.65,0,7.33,0,11,8,0,15.94.14,23.91,0,0,2.51,0,5,0,7.58-11.08-.17-22.14-.09-33.22,0C1866.88,1124.34,1866.63,1110,1866.88,1095.63Z"/><path class="cls-2" d="M1970.47,1095.64h9c.17,14.31,0,28.62.14,42.93l-9.16.16C1970.52,1124.36,1970.24,1110,1970.47,1095.64Z"/><path class="cls-2" d="M1990.42,1138.42c.08-14.31.11-28.62,0-42.92h7.36c7.44,9.13,15.44,17.83,22.36,27.37,0-9.1.25-18.2.29-27.31,3,0,5.93,0,8.92,0,.3,14.34-.2,28.7.11,43.07-2.68,0-5.33,0-8,0-7.28-9.15-14.43-18.39-22.07-27.23.25,9.06.07,18.11,0,27.17C1996.37,1138.53,1993.38,1138.48,1990.42,1138.42Z"/><path class="cls-2" d="M2302.61,1138.42q.12-21.47,0-42.92H2310c7.44,9.13,15.44,17.83,22.36,27.37,0-9.1.25-18.2.28-27.31q4.42,0,8.93,0c.3,14.34-.2,28.7.11,43.07-2.68,0-5.33,0-8,0-7.28-9.15-14.44-18.39-22.08-27.23.25,9.06.08,18.11,0,27.17C2308.56,1138.53,2305.58,1138.48,2302.61,1138.42Z"/><path class="cls-2" d="M2034.37,1095.58c3.37,0,6.78.08,10.18.16,4.54,10.29,8.34,20.91,13.75,30.8,4.36-10.11,8.25-20.49,13.46-30.18,2.77-1.2,6-.56,9-.86-5.29,14.83-12.68,28.78-18.46,43.4a68.84,68.84,0,0,1-9.33-.86c-2.45-4.13-4-8.69-5.81-13.07C2043.24,1115,2038.26,1105.54,2034.37,1095.58Z"/><path class="cls-2" d="M2085.15,1095.64q16.21-.33,32.43-.12c0,2.54,0,5.08,0,7.65-7.73,0-15.47-.06-23.19,0,0,3.24,0,6.51,0,9.79q10.21.06,20.46,0c-.14,2.32-.2,4.67-.3,7-6.73,0-13.44.07-20.16.2,0,3.64.08,7.31.14,11,8.13.07,16.27,0,24.42.08q0,3.71.09,7.44c-11.31-.06-22.61.09-33.91-.36C2085.23,1124.11,2085,1109.88,2085.15,1095.64Z"/><path class="cls-2" d="M2161,1095.53q18.63.08,37.33.11c-.07,2.47-.07,5-.07,7.47l-13.73.16c-.22,11.78.07,23.55-.18,35.34-3.06,0-6.09,0-9.12,0-.24-11.83,0-23.67-.36-35.48-4.62-.05-9.2-.08-13.78-.08Q2161,1099.28,2161,1095.53Z"/><path class="cls-2" d="M2347.89,1095.53q18.65.08,37.33.11c-.06,2.47-.06,5-.06,7.47l-13.73.16c-.22,11.78.06,23.55-.19,35.34-3.06,0-6.09,0-9.12,0-.23-11.83,0-23.67-.36-35.48-4.61-.05-9.19-.08-13.78-.08Q2347.92,1099.28,2347.89,1095.53Z"/><path class="cls-2" d="M2204.37,1095.67q4.1-.06,8.27-.09c5.05,9.26,10.45,18.33,15.66,27.51,5.76-9.07,10.88-18.53,16.84-27.48,2.48.06,5,.14,7.53.24,0,14.32,0,28.63-.06,42.94l-9-.2c-.16-8.88.48-17.73.72-26.6-5.51,7-9.15,15.19-14.22,22.46l-3.72-.22c-4.81-6.81-8.47-14.38-13.07-21.31-.06,8.57-.2,17.13-.14,25.72-3,0-6,.06-8.9.12C2204.42,1124.39,2204.29,1110,2204.37,1095.67Z"/><path class="cls-2" d="M2263.78,1095.67c10.58-.06,21.15-.2,31.74-.12q-.06,3.69-.06,7.44c-7.51,0-15,0-22.53.06.05,3.31.11,6.62.19,10,6.73-.1,13.48-.11,20.22-.11,0,2.4,0,4.83,0,7.26-6.76,0-13.53,0-20.28,0,0,3.69-.09,7.38-.11,11.08q11.91.15,23.86,0c0,2.44-.05,4.87,0,7.33q-16.47.2-32.94,0C2263.61,1124.25,2263.66,1110,2263.78,1095.67Z"/><path class="cls-3" d="M1925.6,1118c-.9-5.87,5.76-10.13,11-8.22,4,.83,5.5,5,7.33,8.17-1.74,2.77-3,6.39-6.24,7.69C1932.49,1128.38,1925.06,1123.93,1925.6,1118Z"/><path class="cls-3" d="M1480.3,1110.52c4.79-2.68,12.21,0,12.73,5.9,1.3,6.68-6.88,12.43-12.67,8.77C1474.61,1122.48,1474.61,1113.26,1480.3,1110.52Z"/><path class="cls-3" d="M1422.65,964.59c19.25-23,59.57-23.62,78.94-.46-4.82,4.28-9.72,8.45-14.42,12.86-6.46-7-15.78-11.4-25.38-11.1-9.86.62-19.92,5.79-24.37,14.94-6.12,12.53-4.57,29.87,6.83,38.94,12.69,10.07,32.94,7.75,42.92-5.11,4.87,4.29,9.69,8.65,14.52,13-18.17,21.12-53.48,21.69-74.38,4.46C1407.66,1015.8,1405.93,983.57,1422.65,964.59Z"/><path class="cls-3" d="M967.19,948.74q35.47-.09,71,0c0,6,0,12,0,18-16.29-.25-32.6-.09-48.89-.09.07,8,0,16.11-.11,24.2,14.33,0,28.67-.07,43,0,0,5.84.07,11.68,0,17.54-14.25-.19-28.51-.14-42.74.06-.4,11.46,0,22.93-.16,34.39-7.41,0-14.8.08-22.21.07C967.24,1011.47,966.93,980.09,967.19,948.74Z"/><path class="cls-3" d="M1052.13,1042.84c0-31.39-.17-62.76,0-94.15q11.1.09,22.21.09c.23,31.36.09,62.72.06,94.09Q1063.26,1042.8,1052.13,1042.84Z"/><path class="cls-3" d="M1096.25,1042.7c-.25-31.36-.12-62.73-.14-94.09,6.19,0,12.37.07,18.56.1,15.15,18.65,30.21,37.4,45.87,55.63.27-18.51,0-37,.15-55.56,7.22.08,14.45-.31,21.67.13.5,31.29.05,62.6.08,93.9-6,0-12,0-18-.08-15.41-18.81-30.65-37.76-46.14-56.51.06,18.86-.24,37.71-.14,56.57C1110.86,1042.76,1103.57,1042.68,1096.25,1042.7Z"/><path class="cls-3" d="M1234.78,949.16c7.33-.48,14.7-.41,22.06-.41,14.05,31.22,27.64,62.64,41.5,93.93-7.64,0-15.3.06-22.94.13-2.65-6.61-5.25-13.24-8-19.79-14.51,0-29-.34-43.5.19-2.5,6.52-5.67,12.8-7.89,19.44-7.78.2-15.58.11-23.37-.05,6.28-12.17,11.12-25,16.87-37.42C1217.87,986.48,1226.67,968,1234.78,949.16Zm-3.69,56.85q14.52.07,29,.07c-4.91-11.53-9.42-23.2-14.35-34.69C1240.34,982.71,1236.51,994.71,1231.09,1006Z"/><path class="cls-3" d="M1308.69,948.68c6.14,0,12.28,0,18.44,0,15.19,18.81,30.84,37.25,46.09,56,.39-18.69-.15-37.36.11-56q11,.06,22.1,0c.17,31.37.11,62.75.1,94.12q-9.26-.08-18.52,0c-7.22-9.3-15.06-18.1-22.42-27.28-7.87-9.9-15.59-19.94-24-29.4-.17,18.86.05,37.72-.06,56.59q-11,.49-21.93,0Q1308.36,995.73,1308.69,948.68Z"/><path class="cls-3" d="M1514.64,948.78c23.79.1,47.6-.54,71.37.33-.09,5.8-.14,11.59-.08,17.4-16.47,0-33-.09-49.43,0,.1,6.52.11,13.05.08,19.58,14.57.47,29.15-.08,43.75.12.11,5.83.11,11.66,0,17.5-14.58-.42-29.15.31-43.72.23,0,7.08,0,14.18-.06,21.27,17.06.51,34.11-.17,51.19.19q0,8.65,0,17.32c-24.4.18-48.78,0-73.19,0C1514.65,1011.48,1514.54,980.13,1514.64,948.78Z"/><path class="cls-3" d="M1634.63,948.71c7.7,0,15.41,0,23.11,0,7.21,21.61,13.77,43.41,20.62,65.15,7.84-21.58,14.47-43.59,22.17-65.23,6.82.11,13.65.06,20.47,0,7,22.21,13.93,44.45,21.16,66.58,6.66-22.32,14.21-44.36,21.57-66.46,7.36.08,14.74.08,22.12.11-10.2,31.33-21.54,62.29-30.89,93.88-8.38.08-16.76.28-25.12-.17-6-20.94-13.25-41.51-19.36-62.41-7.3,20.86-14.16,41.89-21,62.93-8.14-.35-16.27-.27-24.4-.38C1654.78,1011.4,1645.48,979.8,1634.63,948.71Z"/><path class="cls-3" d="M1796.67,948.71c7.33,0,14.68-.05,22,0,0,31.35.09,62.71,0,94.06q-11-.06-22,.07C1796.61,1011.47,1796.53,980.08,1796.67,948.71Z"/><path class="cls-3" d="M1830.12,948.77q40.91-.12,81.81,0c0,6,0,11.9-.11,17.87-9.9.11-19.8,0-29.68.09-.2,25.38-.1,50.77-.08,76.15-7.36-.11-14.72-.07-22.07-.09q-.09-38-.09-75.95c-9.93-.31-19.88-.23-29.79-.18C1830.06,960.69,1830.05,954.72,1830.12,948.77Z"/><path class="cls-3" d="M2430.73,948.77q40.91-.12,81.81,0c0,6,0,11.9-.11,17.87-9.9.11-19.8,0-29.68.09-.21,25.38-.1,50.77-.08,76.15-7.36-.11-14.72-.07-22.07-.09q-.09-38-.09-75.95c-9.93-.31-19.88-.23-29.79-.18C2430.67,960.69,2430.65,954.72,2430.73,948.77Z"/><path class="cls-3" d="M1923.27,948.64c7.39.05,14.78,0,22.19,0-.09,12.4.13,24.81,0,37.23,13.91.27,27.82-.13,41.74,0,.08-12.37-.14-24.73.22-37.09,7.33,0,14.65,0,22-.07.14,31.46,0,62.91.05,94.38-7.38-.29-14.74-.24-22.08-.25-.07-12.83-.22-25.66-.1-38.47-13.91-.05-27.8-.1-41.69.09q-.13,19.22-.06,38.42c-7.4-.11-14.77-.08-22.15-.11C1923.24,1011.39,1923.3,980,1923.27,948.64Z"/><path class="cls-3" d="M2068.58,1042.84q-.16-47.05,0-94.1c13.91,0,27.82-.08,41.73.06,9.79.13,19.91,2.33,27.89,8.25,17.62,12.53,16,44.17-3.63,54-13.39,7.53-29.29,5.58-44,5.58.15,8.78,0,17.57,0,26.36C2083.24,1042.76,2075.91,1042.77,2068.58,1042.84Zm22-76.33c.06,10.83-.08,21.65.08,32.47,9.5-.62,19.54,1.49,28.67-1.89,11.19-4.67,11.86-22.89.85-28.1C2110.89,964.85,2100.41,967.3,2090.59,966.51Z"/><path class="cls-3" d="M2164.53,948.68c13.22.25,26.45-.07,39.67,0,10.67.13,21.87,2.32,30.45,9s12.47,18.23,11.14,28.92c-.36,11.7-8.56,21.91-19.17,26.31,7.44,9.79,14.33,20,21.75,29.8-8-.09-16,.29-23.92-.12-6.92-8.1-12-17.61-18.84-25.75-6.31-.6-12.65-.17-19-.16-.06,8.76,0,17.53,0,26.32-7.39-.19-14.77-.32-22.14-.3C2164.39,1011.4,2164.47,980,2164.53,948.68Zm22,18c-.05,10.82.16,21.64.11,32.48,9.59-.42,19.91,1.6,28.91-2.65,9.71-4.8,10.86-20.26,1.8-26.29S2196.76,967.28,2186.55,966.72Z"/><path class="cls-3" d="M2262.56,948.77c23.64-.13,47.25,0,70.87-.11,0,6,0,11.93,0,17.92-16.3-.21-32.62,0-48.93,0,.05,6.56,0,13.12,0,19.68,14.38.16,28.75-.12,43.15-.07q.06,8.84-.07,17.68c-14.36.06-28.7,0-43.05,0,0,7.17-.06,14.35-.08,21.52,17-.09,34,0,50.95,0,0,5.8,0,11.59-.09,17.41-24.5-.07-49,0-73.49-.15.25-22.86-.1-45.73.16-68.6C2262.65,965.64,2262.48,957.2,2262.56,948.77Z"/><path class="cls-3" d="M2351.41,948.77c23.63-.13,47.25,0,70.87-.11,0,6,0,11.93,0,17.92-16.31-.21-32.63,0-48.93,0,0,6.56,0,13.12,0,19.68,14.37.16,28.75-.12,43.15-.07q.06,8.84-.07,17.68c-14.36.06-28.71,0-43.05,0,0,7.17-.07,14.35-.08,21.52,17-.09,33.95,0,50.95,0,0,5.8,0,11.59-.1,17.41-24.49-.07-49,0-73.48-.15.25-22.86-.1-45.73.15-68.6C2351.5,965.64,2351.33,957.2,2351.41,948.77Z"/></svg>