<svg id="Layer_1" data-name="Layer 1" xmlns="http://www.w3.org/2000/svg" viewBox="0 0 3000 2000"><defs><style>.cls-1{fill:#c59a49;}.cls-2{fill:#223168;}</style></defs><path class="cls-1" d="M1493.68,461.08c2.83-1.61,6.16-5,9.54-2.66,11.24,6.84,21.57,15.1,32.77,22,17.3,10.73,33.57,23,50.92,33.7,16.71,10.29,32.16,22.48,48.87,32.79,6.57,3.92,12.38,9.52,20.09,11.2,0-12.54.23-25.06.25-37.6,17.87.67,35.74-1.45,53.58.07,0,25.32-.08,50.64.06,76,20.8,15.49,43.43,28.28,64.44,43.46,16.38,11.71,33.82,21.87,50.18,33.6,5.49,4,11.07,7.94,16.78,11.63-23.11.09-46.24.66-69.37.24-3.86.08-7-2.35-10.15-4.26-8-5.29-15.85-10.78-24-15.83-18.14-11-35.18-23.66-52.74-35.53-2.55-2-5.78-2.18-8.8-2.66-33.28,56.35-67.23,112.29-100.65,168.55-2.33,3.92-4.68,7.89-8,11.05-13.32-16.6-23.74-35.23-36.17-52.44-9.9-13.88-18.42-28.65-28.13-42.67-1-.05-3-.19-4-.25-10.63,16.33-20.78,33-31.53,49.23-11.12,15.83-20.6,32.78-32.24,48.29C1397.22,748.53,1362,686.29,1325,625.12c-20,10.87-37.77,25.13-56.76,37.54-8.79,5.64-17.55,11.37-26.15,17.3-4,2.52-8,5.89-13,5.49-23,0-46.09.57-69.11-.1,38.75-26.74,78.34-52.28,117.19-78.91,46.43-30.57,92.06-62.36,138.67-92.68C1441.38,495.58,1468.2,479.33,1493.68,461.08Zm-22.19,64.3c-18.33,11.42-35.48,24.61-53.85,36-17.34,10.92-33.46,23.67-51,34.35.82,5,3.18,9.54,6,13.71,12.72,19.33,23.59,39.78,36.56,58.92,9.75,16.34,19,32.94,29.66,48.75,15.32-22.5,30.23-45.29,45.18-68,11.37-.25,22.76-.06,34.14-.1,16.38,22,29.65,46.15,46.55,67.79,4.82-8.75,10.84-16.76,15.54-25.58,9.6-17.43,21-33.76,30.59-51.21,7.7-13.78,17-26.65,24.26-40.68,1.51-2-1.46-3.56-2.62-4.72-25.24-16.9-50-34.53-75.69-50.7-16-11.49-32.78-21.87-48.88-33.24-3.23-1.95-7.28-5.3-11-2.34C1488.2,513.51,1480.23,520,1471.49,525.38Z"/><path class="cls-1" d="M1505.34,542.94c7.78,1.11,15.66,4,20.34,10.74,4.88,5.47,4.76,13.08,4.88,19.94-8.47.1-16.92.16-25.39.06C1505.21,563.43,1505.31,553.19,1505.34,542.94Z"/><path class="cls-1" d="M1475.79,554.2c4.61-6.59,12.29-10,19.94-11.58.15,10.38.17,20.76.17,31.14-8.51-.08-17-.16-25.48-.19C1470.65,566.82,1471.41,559.65,1475.79,554.2Z"/><path class="cls-1" d="M1471,581.52c8.38-.06,16.73-.15,25.08-.19q.24,13.3-.22,26.65c-8.32,0-16.64,0-25,0C1470.78,599.18,1470.9,590.35,1471,581.52Z"/><path class="cls-1" d="M1505,581.19c8.45.06,16.88.27,25.31.25.1,8.87.23,17.74,0,26.61-8.29-.11-16.59-.11-24.89-.11C1505.13,599,1504.94,590.12,1505,581.19Z"/><path class="cls-1" d="M1424.75,872.94c17.78-.06,35.58-.28,53.35.06q.38,193.44,0,386.86c-26.18-10.9-50.72-25.44-74.71-40.51a541.58,541.58,0,0,1-126.23-113c-3.75-3.54-1.15-8.68.5-12.54,6.8-14.42,13.95-28.66,20.45-43.21,8.89,8,14.82,18.55,23.63,26.59,2.07-21.88,1.32-43.87,1.49-65.81-.78-18-1.62-36.19.56-54.14,16.3.08,32.61,0,48.92,0,3.78-.83,4.56,3.4,4.22,6.15.12,56.49-.13,113,.06,169.47,15.21,12.22,29.86,25.33,46.36,35.79-.35-20.59,1.89-41.16.22-61.69-.11-39.59,0-79.18-.09-118.77C1424.88,949.79,1421.84,911.31,1424.75,872.94Z"/><path class="cls-2" d="M1228.48,703a699.8,699.8,0,0,0,96.25-37.16c8.49,14.91,18,29.17,26.17,44.29-45.25,21-92.6,37.22-140.66,50.5,1.28,15.26,2,30.59,4,45.81,1.22,11.89,1.74,24,4.87,35.55,42.88-20.32,86.51-39.18,129.23-59.87.5,19-.09,38.06.56,57.08-39.69,18.49-79.64,36.36-119.67,54.08a509.08,509.08,0,0,0,46.76,120.4c2.52,4.93,6.3,9.39,7.6,14.85-1.33,7.42-6,13.67-9,20.5-5.87,10.76-9.92,22.44-16.23,33a538.65,538.65,0,0,1-55.23-102.41c-32.88-81.64-45.76-170.3-45.34-258C1181.4,715.57,1205.58,711.54,1228.48,703Z"/><path class="cls-2" d="M1651.43,710.51c8.09-15.14,17-29.86,26.36-44.2,52.44,24.64,107.9,42.63,164.39,55.32.48,41.62-5.53,84.23-23.73,122-12.86,29-34.23,53.41-59.12,72.71-32.35,24.93-72.74,38.89-113.46,40.38-17.17.38-34.31-.38-51.46.13-9.12.42-16.92,8.8-16.63,17.93.15,66.09-.16,132.18.07,198.24,31.24-20.24,60-44.35,86.18-70.73,38.86-39.46,70.66-86.52,89.56-138.73,3.25-7.17,2.87-17,10.38-21.33,26.94-18.07,48.41-43.07,66-70.1-1.45,18-6.42,35.48-10.41,53.05-18.2,71.93-53.21,139.83-102.87,195.14-52.27,59.87-118.89,105.77-190.13,140.22q-.09-116.1-.08-232.17c1.15-22.87-1.78-45.92,1.47-68.65,2.89-22.17,19-41.44,39.63-49.57,13.11-6.12,27.85-4.32,41.87-4.59s28.17.44,42.22-.63c29.65-3.48,59-14.35,82-33.66,22.25-17.53,37.82-42.56,47.09-69.09,4.74-13.48,7.07-27.66,9.78-41.65-18.94-4.92-37.2-12.07-56-17.53C1706.26,733.77,1678.77,722.28,1651.43,710.51Z"/><path class="cls-1" d="M873.46,1498.24c11-2.56,24.59,2.3,28.34,13.7,4.3,10.07-.37,22.76-10.32,27.46-8.82,4.89-20.51,3.59-28.23-2.81-7.88-7.09-9.31-20.07-3.44-28.84A22.35,22.35,0,0,1,873.46,1498.24Zm3,7.62c-11.85,2.18-15,20.61-4.34,26.35,8.05,5.38,20.62.11,21.46-9.81C896.15,1512.52,886.16,1503.18,876.48,1505.86Z"/><path class="cls-1" d="M1004.13,1500c9.52-4.45,21.05-2.3,28.81,4.68-1.87,1.79-3.72,3.61-5.56,5.41-6-4.36-14.78-6.76-21.2-1.91-8.55,6.1-6.51,21.32,3.41,24.87,4.64,2.27,9.74.66,14.42-.66-.07-4.35-.13-8.69-.21-13,2.78-.05,5.57-.07,8.38-.08-.12,5.85.41,11.73-.19,17.56-10.19,7.45-26.34,7.45-35.21-2.12C987.07,1524.62,990.8,1505.17,1004.13,1500Z"/><path class="cls-1" d="M1092,1504.69c9.51-10.08,26.71-8.88,36.47.28-2,1.74-4,3.5-6,5.26-5.62-4.13-13.39-6.69-19.85-2.89-9.37,4.72-9.42,20.44.11,25,4.83,3,10.65,1.75,15.8.39.06-4.47.09-9,.09-13.4,3,0,5.93,0,8.92,0,0,5.78,0,11.55,0,17.34-9.34,6.14-22.3,8.13-31.92,1.51C1084.42,1531.28,1082.84,1513.93,1092,1504.69Z"/><path class="cls-1" d="M1181.14,1501.3c8.4-5.68,19.51-4,28.23.06-1.16,2.31-2.27,4.65-3.42,7-5.3-2.09-11.25-4.21-16.91-2.35-3.21,1-4.84,5.55-1.45,7.37,6.45,3.51,14.81,2.78,20.46,7.91,5.78,5.37,2.53,15.44-4.12,18.48-9.2,4.54-19.9,2.09-28.67-2.24,1.19-2.31,2.42-4.61,3.65-6.89,6.19,2.76,13.47,5.82,20.14,2.84,2.51-.92,4-4.41,1.77-6.39-6.46-4.31-15.27-3.49-21.34-8.59C1174.13,1514.12,1175.53,1504.84,1181.14,1501.3Z"/><path class="cls-1" d="M1353.47,1501c8.24-5.4,19.2-3.84,27.57.49-1,2.33-1.9,4.69-2.83,7.06-5.54-2.5-12-4.6-18-2.42-2.73,1.07-3.31,5-1.38,7.08,6.05,3.62,13.69,3.26,19.6,7.18,4.32,2.91,5.24,9,3.27,13.61-3.41,6.29-11.14,8.71-17.91,8.3-6,0-11.66-2.42-17-5,1.06-2.28,2.14-4.52,3.22-6.77,6.29,2.78,13.5,5.81,20.4,3.22,3-.9,4.9-5.12,1.87-7.17-6.69-3.94-15.47-3.22-21.45-8.52C1345.68,1513.24,1347.88,1504.51,1353.47,1501Z"/><path class="cls-1" d="M1587.22,1502.4c9.72-7.22,24.25-6,32.74,2.63-1.89,1.71-3.75,3.44-5.62,5.16-5.51-4.61-13.92-6.88-20.15-2.32-8.9,6.18-7,22,3.27,25.67,6,2.53,12.19-.7,17.08-4.11a70.34,70.34,0,0,1,5.43,5.49c-7.94,8.62-22.18,9.64-31.69,3.08C1576.46,1530.44,1575.52,1510.51,1587.22,1502.4Z"/><path class="cls-1" d="M1890.09,1500.87c8.41-5,19.24-3.82,27.58.8-1,2.14-2,4.3-2.93,6.47-7-2.7-16.54-5.54-21.91,1.6,4.59,7.56,14.58,5.87,21.49,9.87,7.34,3.58,6.29,15.35-.33,19.21-9.42,5.77-21.69,3.86-30.78-1.68a67.55,67.55,0,0,1,4.32-6.17c7.56,3.08,17.79,6.83,24-.89-5.73-7.93-17.2-5.56-24-11.82C1882.48,1513.33,1884.09,1504.23,1890.09,1500.87Z"/><path class="cls-1" d="M2156.9,1500.87c8.42-5,19.24-3.82,27.59.8q-1.5,3.21-2.93,6.47c-7-2.7-16.54-5.54-21.91,1.6,4.58,7.56,14.58,5.87,21.48,9.87,7.35,3.58,6.29,15.35-.33,19.21-9.41,5.77-21.68,3.86-30.77-1.68a67.55,67.55,0,0,1,4.32-6.17c7.56,3.08,17.79,6.83,24-.89-5.72-7.93-17.19-5.56-24-11.82C2149.29,1513.33,2150.91,1504.23,2156.9,1500.87Z"/><path class="cls-1" d="M799.51,1541.5c.12-14.39.23-28.79.08-43.18,2.59,0,5.18,0,7.76,0q8,13.92,16.46,27.54c5.26-9.4,11.16-18.42,17-27.46,2.37.07,4.75.14,7.15.24.22,14.25.16,28.49-.09,42.76q-4.3,0-8.6,0c0-8.72,0-17.45,0-26.16a222.68,222.68,0,0,0-13.26,22l-5-.19a166.91,166.91,0,0,0-12.76-21.1c-.3,8.58.06,17.15.61,25.71Z"/><path class="cls-1" d="M911.7,1498.49c8.41.25,17-1,25.27.64,7.53,1.51,13.41,9.34,11.62,17.06-.51,5.24-4.89,8.52-8.69,11.53,3.11,4.58,6.29,9.12,9.46,13.67-3.53,0-7,0-10.56,0-2.71-4.06-5.46-8.11-8.06-12.22-3.3-.07-6.58-.13-9.86-.16q-.17,6.26-.26,12.55c-3.06-.06-6.12-.09-9.15-.11C911.44,1527.13,911.75,1512.82,911.7,1498.49Zm9,7.3c0,5.36-.07,10.71,0,16.09,5.18-.34,11,.81,15.61-2,4.57-3,3.8-10.73-1.17-12.88C930.53,1505.25,925.48,1506,920.69,1505.79Z"/><path class="cls-1" d="M951.75,1505.83c.08-2.48.17-4.92.28-7.37,12.44,0,24.89-.25,37.33-.1,0,2.47-.08,4.93-.09,7.43-5,0-9.94,0-14.88.09,0,11.85,1.1,23.66.63,35.53-3.12,0-6.23,0-9.34,0,0-11.82,0-23.62.28-35.42Z"/><path class="cls-1" d="M1036.61,1541.48c6.12-14.5,12.83-28.74,19.33-43.07,3,0,5.93-.06,8.91-.06,6.75,14.2,12.79,28.73,19.4,43-3.19.05-6.39.11-9.56.19q-2.07-4.77-4.06-9.52c-6.86.12-13.72.12-20.57.15-1.29,3-2.58,6-3.83,9.09Zm16.58-16.83c4.81.14,9.59.22,14.41.26-2.23-5.57-4.5-11.09-6.95-16.55Q1056.6,1516.34,1053.19,1524.65Z"/><path class="cls-1" d="M1137.25,1498.44c10.83-.08,21.67-.25,32.5-.16q0,3.75-.08,7.52c-7.76,0-15.52,0-23.27.06,0,3.35.1,6.7.17,10.06,6.72-.06,13.45-.06,20.17-.08,0,2.33,0,4.68,0,7-6.75,0-13.48.1-20.23.16,0,3.61,0,7.23,0,10.86,7.92,0,15.86.06,23.79.22,0,2.4,0,4.8,0,7.25-11,.11-22.07,0-33.1,0C1137,1527,1137.27,1512.74,1137.25,1498.44Z"/><path class="cls-1" d="M1280.24,1498.38c3,0,6.11,0,9.19,0,.14,14.31-.11,28.64.06,43q-4.6,0-9.18.08C1280.16,1527.06,1280.2,1512.72,1280.24,1498.38Z"/><path class="cls-1" d="M1300.37,1541.34c-.13-14.31.11-28.62,0-42.91,2.49,0,5-.08,7.54-.1,7.24,9.09,14.91,17.8,22.26,26.79,0-8.88.17-17.77.31-26.65,2.93,0,5.9,0,8.88.1.49,14.4-.28,28.82.2,43.24-3.21-.75-7.62.52-9.71-2.68-6.64-8.36-13.52-16.51-20.16-24.87-.16,9,0,18.08-.11,27.13C1306.49,1541.36,1303.43,1541.36,1300.37,1541.34Z"/><path class="cls-1" d="M1390,1498.39c3,0,5.93.08,8.91.15.18,9.14-.48,18.35.43,27.49.62,6.78,9,10.18,14.68,7.12,3.5-1.6,5.17-5.49,5.15-9.16.33-8.54.14-17.09.06-25.63,3,0,6.11.05,9.2.11-.05,9,.6,18.11-.17,27.15-.43,6.2-4.08,12.41-10,14.81-7.31,2.94-16.4,2.47-22.7-2.52-4.23-3.28-5.78-8.84-5.78-14C1389.65,1515.44,1389.93,1506.92,1390,1498.39Z"/><path class="cls-1" d="M1438.78,1498.43c9.53.29,19.63-1.84,28.7,2,7.5,2.92,10.8,12.81,7,19.77-1.64,3.3-4.83,5.36-7.61,7.61q4.88,6.88,9.86,13.7c-3.45,0-6.88,0-10.3,0q-4.23-6.24-8.45-12.43H1448q0,6.12,0,12.25l-9.18.17C1438.72,1527.13,1438.52,1512.77,1438.78,1498.43ZM1448,1506c.07,5.27,0,10.56,0,15.85,6.81.09,14.62.82,19.2-5.37-1-3.32-.84-8.14-4.78-9.51C1457.75,1505.5,1452.78,1506.19,1448,1506Z"/><path class="cls-1" d="M1478.2,1541.48c7.08-14.2,12.79-29,19.94-43.21,2.95,0,5.92,0,8.9.09,6.14,14.57,13,28.84,19.57,43.22-3-.13-6.06-.1-9-.46-2.56-2.32-3.28-6-4.8-9-6.91-.12-13.79-.11-20.68-.06q-2,4.68-4,9.4Zm17-16.65c4.76,0,9.53,0,14.3-.12-2.45-5.51-4.74-11.09-7.41-16.51C1499.84,1513.76,1497.48,1519.28,1495.24,1524.83Z"/><path class="cls-1" d="M1531.57,1498.38c2.65,0,5.33,0,8,.09q10.65,13.3,21.71,26.32c.77-8.81.72-17.62.61-26.43,2.94,0,5.87.05,8.82.1.5,14.29,0,28.62.11,42.93-2.54,0-5.08,0-7.59,0q-11.32-13.65-22.47-27.41c-.24,9.16.15,18.34.15,27.52-3.18,0-6.35,0-9.52,0C1531.68,1527.14,1531.41,1512.75,1531.57,1498.38Z"/><path class="cls-1" d="M1627.07,1498.41c10.78.09,21.56,0,32.34-.11,0,2.51,0,5,.06,7.56q-11.65,0-23.29-.06c0,3.28,0,6.56.1,9.86,6.73.11,13.48.12,20.24.07,0,2.39-.08,4.81-.1,7.22-6.74,0-13.47.08-20.21,0q0,5.49,0,11c8,0,15.94.14,23.91,0,0,2.51,0,5,0,7.58-11.08-.18-22.14-.1-33.22,0C1627.07,1527.13,1626.81,1512.77,1627.07,1498.41Z"/><path class="cls-1" d="M1730.66,1498.43q4.46,0,8.95,0c.17,14.31,0,28.62.14,42.93-3.08.05-6.12.09-9.17.16C1730.71,1527.14,1730.43,1512.78,1730.66,1498.43Z"/><path class="cls-1" d="M1750.61,1541.2c.07-14.31.1-28.62,0-42.92H1758c7.44,9.14,15.44,17.83,22.36,27.37,0-9.1.25-18.2.28-27.3q4.43,0,8.93,0c.3,14.35-.2,28.7.11,43.08-2.68,0-5.33,0-8,0-7.28-9.15-14.44-18.39-22.08-27.22.25,9,.08,18.11,0,27.16C1756.55,1541.31,1753.57,1541.26,1750.61,1541.2Z"/><path class="cls-1" d="M2062.8,1541.2q.12-21.46,0-42.92h7.36c7.43,9.14,15.44,17.83,22.36,27.37,0-9.1.25-18.2.28-27.3q4.42,0,8.93,0c.3,14.35-.21,28.7.11,43.08-2.69,0-5.34,0-8,0-7.28-9.15-14.44-18.39-22.08-27.22.25,9,.08,18.11,0,27.16C2068.75,1541.31,2065.77,1541.26,2062.8,1541.2Z"/><path class="cls-1" d="M1794.56,1498.36c3.37,0,6.78.08,10.18.16,4.54,10.29,8.33,20.92,13.75,30.8,4.36-10.1,8.25-20.49,13.46-30.17,2.76-1.21,6-.57,9-.87-5.29,14.83-12.68,28.78-18.45,43.41a70.64,70.64,0,0,1-9.34-.87c-2.44-4.12-4-8.69-5.8-13.07C1803.42,1517.81,1798.45,1508.33,1794.56,1498.36Z"/><path class="cls-1" d="M1845.34,1498.43q16.22-.33,32.43-.13c0,2.54,0,5.08,0,7.66-7.74,0-15.47-.06-23.19,0,0,3.25,0,6.51,0,9.79q10.22.08,20.46,0c-.14,2.32-.2,4.68-.3,7-6.73,0-13.45.08-20.16.2,0,3.64.08,7.32.14,11,8.13.06,16.27,0,24.41.08q0,3.69.1,7.43c-11.31-.06-22.61.1-33.91-.36C1845.41,1526.89,1845.18,1512.66,1845.34,1498.43Z"/><path class="cls-1" d="M1921.2,1498.32q18.65.06,37.33.11c-.06,2.46-.06,5-.06,7.47-4.6,0-9.16.09-13.73.15-.22,11.79.06,23.56-.19,35.34-3.06,0-6.09,0-9.11,0-.24-11.83,0-23.66-.36-35.48-4.62,0-9.2-.08-13.78-.08C1921.25,1503.34,1921.22,1500.81,1921.2,1498.32Z"/><path class="cls-1" d="M2108.08,1498.32q18.63.06,37.33.11c-.07,2.46-.07,5-.07,7.47q-6.89.06-13.73.15c-.22,11.79.07,23.56-.18,35.34-3.06,0-6.09,0-9.12,0-.24-11.83,0-23.66-.36-35.48-4.62,0-9.2-.08-13.78-.08C2108.12,1503.34,2108.09,1500.81,2108.08,1498.32Z"/><path class="cls-1" d="M1964.56,1498.46q4.1-.07,8.27-.1c5.05,9.26,10.45,18.33,15.66,27.51,5.76-9.07,10.87-18.53,16.84-27.48l7.53.24c0,14.33.05,28.64-.06,42.95l-9-.21c-.15-8.88.49-17.73.73-26.59-5.51,7-9.15,15.19-14.22,22.45l-3.72-.22c-4.82-6.81-8.47-14.37-13.07-21.31-.06,8.57-.2,17.14-.14,25.72q-4.47,0-8.9.13C1964.61,1527.17,1964.48,1512.82,1964.56,1498.46Z"/><path class="cls-1" d="M2024,1498.46c10.57-.07,21.15-.21,31.74-.13-.05,2.47-.06,4.94-.06,7.44-7.52,0-15,0-22.53.06,0,3.31.11,6.62.18,10,6.74-.09,13.48-.11,20.23-.11,0,2.4,0,4.83,0,7.27-6.76,0-13.52,0-20.27,0q-.08,5.52-.11,11.07,11.91.15,23.85,0c0,2.43,0,4.86,0,7.33q-16.48.18-32.94,0C2023.8,1527,2023.84,1512.74,2024,1498.46Z"/><path class="cls-2" d="M1685.78,1520.76c-.89-5.87,5.76-10.14,11-8.23,4,.83,5.49,5,7.33,8.18-1.74,2.76-2.95,6.38-6.25,7.69C1692.67,1531.16,1685.25,1526.72,1685.78,1520.76Z"/><path class="cls-2" d="M1240.49,1513.3c4.78-2.68,12.21,0,12.72,5.9,1.31,6.69-6.87,12.43-12.66,8.77C1234.79,1525.26,1234.79,1516.05,1240.49,1513.3Z"/><path class="cls-2" d="M1182.84,1367.37c19.25-23,59.56-23.62,78.94-.45-4.83,4.27-9.73,8.44-14.43,12.86-6.45-7-15.77-11.41-25.37-11.11-9.87.63-19.92,5.8-24.37,14.94-6.12,12.53-4.57,29.87,6.83,38.94,12.69,10.07,32.94,7.75,42.91-5.11q7.31,6.45,14.52,13c-18.17,21.13-53.47,21.69-74.38,4.46C1167.85,1418.59,1166.11,1386.35,1182.84,1367.37Z"/><path class="cls-2" d="M727.38,1351.52q35.48-.09,71,0c0,6,0,12,0,18-16.29-.25-32.59-.09-48.88-.09.06,8.05,0,16.12-.11,24.2,14.33,0,28.66-.06,43,0,0,5.84.08,11.68,0,17.54-14.25-.19-28.5-.14-42.74.06-.39,11.47,0,22.93-.15,34.4-7.41,0-14.81.08-22.21.06C727.43,1414.25,727.11,1382.88,727.38,1351.52Z"/><path class="cls-2" d="M812.32,1445.62c0-31.39-.18-62.76,0-94.15,7.41.07,14.8.08,22.21.1.24,31.35.1,62.71.06,94.08Q823.44,1445.57,812.32,1445.62Z"/><path class="cls-2" d="M856.44,1445.48c-.25-31.36-.13-62.73-.14-94.08q9.27.06,18.56.09c15.14,18.65,30.21,37.4,45.87,55.63.27-18.51,0-37,.14-55.55,7.22.08,14.46-.32,21.68.12.5,31.3.05,62.61.08,93.9-6,0-12,0-18-.08-15.41-18.81-30.65-37.76-46.14-56.51.06,18.86-.24,37.72-.14,56.57C871.05,1445.54,863.75,1445.46,856.44,1445.48Z"/><path class="cls-2" d="M995,1351.94c7.33-.48,14.69-.4,22-.4,14,31.21,27.65,62.63,41.51,93.92-7.64,0-15.3.07-23,.13-2.64-6.61-5.24-13.24-8-19.78-14.5,0-29-.35-43.49.19-2.51,6.51-5.67,12.79-7.89,19.43-7.79.21-15.59.11-23.37,0,6.28-12.17,11.12-25,16.87-37.42C978.06,1389.27,986.86,1370.75,995,1351.94Zm-3.7,56.86q14.52.08,29,.06c-4.9-11.53-9.41-23.2-14.34-34.69C1000.53,1385.49,996.69,1397.49,991.27,1408.8Z"/><path class="cls-2" d="M1068.88,1351.46c6.14,0,12.28,0,18.44,0,15.19,18.81,30.84,37.25,46.09,56,.39-18.68-.16-37.35.11-56q11,.07,22.1,0c.17,31.37.11,62.74.09,94.11q-9.26-.07-18.51,0c-7.22-9.31-15.07-18.11-22.43-27.29-7.86-9.9-15.58-19.94-24-29.4-.17,18.86,0,37.72-.07,56.59q-11,.49-21.92,0Q1068.55,1398.52,1068.88,1351.46Z"/><path class="cls-2" d="M1274.83,1351.57c23.79.09,47.59-.55,71.37.33-.1,5.79-.14,11.59-.08,17.4-16.48,0-32.95-.1-49.43,0q.13,9.78.08,19.58c14.56.47,29.15-.08,43.74.13.11,5.82.11,11.65,0,17.49-14.58-.42-29.14.32-43.71.24,0,7.08,0,14.17-.06,21.27,17,.5,34.11-.18,51.18.18,0,5.77,0,11.55,0,17.33-24.4.17-48.79,0-73.19,0C1274.84,1414.26,1274.73,1382.91,1274.83,1351.57Z"/><path class="cls-2" d="M1394.81,1351.49c7.71,0,15.42,0,23.12,0,7.21,21.61,13.77,43.42,20.61,65.15,7.85-21.58,14.48-43.58,22.18-65.23,6.81.11,13.64.06,20.47,0,7,22.21,13.93,44.45,21.16,66.58,6.66-22.32,14.21-44.36,21.57-66.45,7.36.07,14.74.07,22.11.1-10.19,31.33-21.53,62.29-30.88,93.88-8.38.08-16.76.29-25.12-.17-6-20.94-13.26-41.5-19.36-62.41-7.3,20.86-14.16,41.89-21,62.93-8.15-.35-16.28-.27-24.4-.38C1415,1414.19,1405.67,1382.58,1394.81,1351.49Z"/><path class="cls-2" d="M1556.86,1351.49c7.33,0,14.67,0,22,0,0,31.36.1,62.71,0,94.07q-11-.07-22,.06C1556.79,1414.25,1556.72,1382.86,1556.86,1351.49Z"/><path class="cls-2" d="M1590.31,1351.55q40.9-.12,81.81,0c0,6,0,11.91-.11,17.87-9.9.11-19.8,0-29.68.1-.21,25.37-.1,50.76-.08,76.15-7.36-.11-14.73-.08-22.07-.1q-.09-38-.09-75.94c-9.93-.32-19.88-.24-29.79-.19C1590.25,1363.47,1590.23,1357.5,1590.31,1351.55Z"/><path class="cls-2" d="M2190.92,1351.55q40.9-.12,81.8,0c0,6,0,11.91-.11,17.87-9.9.11-19.79,0-29.68.1-.2,25.37-.09,50.76-.08,76.15-7.36-.11-14.72-.08-22.06-.1q-.11-38-.1-75.94c-9.93-.32-19.87-.24-29.79-.19C2190.86,1363.47,2190.84,1357.5,2190.92,1351.55Z"/><path class="cls-2" d="M1683.45,1351.43c7.4,0,14.79,0,22.2,0-.1,12.41.12,24.81-.05,37.23,13.91.27,27.82-.12,41.74,0,.08-12.38-.14-24.74.22-37.09,7.33,0,14.64,0,22-.08.14,31.46,0,62.91,0,94.38-7.38-.28-14.74-.24-22.09-.25-.06-12.83-.22-25.66-.09-38.47-13.91,0-27.8-.09-41.69.1q-.15,19.21-.07,38.42c-7.39-.11-14.77-.08-22.14-.11C1683.42,1414.17,1683.49,1382.8,1683.45,1351.43Z"/><path class="cls-2" d="M1828.77,1445.62q-.16-47.05,0-94.1c13.91,0,27.82-.08,41.73.06,9.78.13,19.9,2.34,27.89,8.26,17.62,12.53,16,44.17-3.63,54-13.4,7.54-29.29,5.58-44,5.58.14,8.79,0,17.57,0,26.36C1843.43,1445.54,1836.1,1445.56,1828.77,1445.62Zm22-76.32c.06,10.82-.08,21.64.07,32.47,9.51-.63,19.55,1.48,28.68-1.9,11.18-4.67,11.86-22.88.85-28.1C1871.07,1367.64,1860.6,1370.08,1850.78,1369.3Z"/><path class="cls-2" d="M1924.72,1351.46c13.22.25,26.45-.06,39.67,0,10.67.13,21.86,2.32,30.45,9.06s12.46,18.23,11.13,28.91c-.36,11.7-8.55,21.91-19.17,26.31,7.44,9.79,14.33,20,21.76,29.81-8-.1-16,.28-23.92-.13-6.92-8.1-12-17.6-18.84-25.75-6.31-.59-12.66-.17-19-.15-.06,8.75,0,17.52,0,26.31-7.39-.19-14.77-.31-22.15-.3Q1924.54,1398.52,1924.72,1351.46Zm22,18c0,10.82.15,21.65.11,32.48,9.58-.42,19.9,1.6,28.91-2.64,9.71-4.81,10.85-20.27,1.8-26.3S1957,1370.07,1946.74,1369.5Z"/><path class="cls-2" d="M2022.75,1351.55c23.63-.12,47.25,0,70.87-.11,0,6,0,11.94,0,17.92-16.31-.2-32.63,0-48.93,0,0,6.56,0,13.13,0,19.69,14.38.15,28.76-.13,43.15-.08,0,5.89,0,11.79-.06,17.68-14.36.06-28.71,0-43.05,0,0,7.18-.07,14.35-.08,21.52,17-.09,33.95,0,50.95,0,0,5.79,0,11.59-.1,17.4-24.49-.06-49,0-73.48-.14.25-22.87-.1-45.74.15-68.6C2022.84,1368.42,2022.67,1360,2022.75,1351.55Z"/><path class="cls-2" d="M2111.6,1351.55c23.63-.12,47.25,0,70.87-.11,0,6,0,11.94,0,17.92-16.31-.2-32.63,0-48.93,0,0,6.56,0,13.13,0,19.69,14.38.15,28.76-.13,43.15-.08,0,5.89,0,11.79-.06,17.68-14.36.06-28.71,0-43.06,0,0,7.18-.06,14.35-.07,21.52,17-.09,33.95,0,50.95,0,0,5.79,0,11.59-.1,17.4-24.49-.06-49,0-73.49-.14.25-22.87-.09-45.74.16-68.6C2111.69,1368.42,2111.52,1360,2111.6,1351.55Z"/></svg>